HIERARCHY
ROOT Hips
{
  OFFSET 13.6774 106.653 -34.4427
  CHANNELS 6 Xposition Yposition Zposition Zrotation Xrotation Yrotation
  JOINT ToSpine
  {
    OFFSET -2.69724 7.43032 -0.144315
    CHANNELS 3 Zrotation Xrotation Yrotation
    JOINT Spine
    {
      OFFSET -0.0310711 10.7595 1.96963
      CHANNELS 3 Zrotation Xrotation Yrotation
      JOINT Spine1
      {
        OFFSET 19.9056 3.91189 0.764692
        CHANNELS 3 Zrotation Xrotation Yrotation
        JOINT Neck
        {
          OFFSET 25.9749 7.03908 -0.130764
          CHANNELS 3 Zrotation Xrotation Yrotation
          JOINT Head
          {
            OFFSET 9.52751 0.295786 -0.907742
            CHANNELS 3 Zrotation Xrotation Yrotation
            End Site
            {
              OFFSET 16.4037 0.713936 2.7358
            }
          }
        }
        JOINT LeftShoulder
        {
          OFFSET 17.7449 4.33886 11.7777
          CHANNELS 3 Zrotation Xrotation Yrotation
          JOINT LeftArm
          {
            OFFSET 0.911315 1.27913 9.80584
            CHANNELS 3 Zrotation Xrotation Yrotation
            JOINT LeftForeArm
            {
              OFFSET 28.6126 1.18197 -3.53199
              CHANNELS 3 Zrotation Xrotation Yrotation
              JOINT LeftHand
              {
                OFFSET 27.5088 0.0218783 0.327423
                CHANNELS 3 Zrotation Xrotation Yrotation
                End Site
                {
                  OFFSET 18.6038 -0.000155887 0.382096
                }
              }
            }
          }
        }
        JOINT RightShoulder
        {
          OFFSET 17.1009 2.89543 -12.2328
          CHANNELS 3 Zrotation Xrotation Yrotation
          JOINT RightArm
          {
            OFFSET 1.4228 0.178766 -10.211
            CHANNELS 3 Zrotation Xrotation Yrotation
            JOINT RightForeArm
            {
              OFFSET 28.733 1.87905 2.64907
              CHANNELS 3 Zrotation Xrotation Yrotation
              JOINT RightHand
              {
                OFFSET 27.4588 0.290562 -0.101845
                CHANNELS 3 Zrotation Xrotation Yrotation
                End Site
                {
                  OFFSET 17.8396 -0.255518 -0.000602873
                }
              }
            }
          }
        }
      }
    }
  }
  JOINT LeftUpLeg
  {
    OFFSET -5.61296 -2.22332 -10.2353
    CHANNELS 3 Zrotation Xrotation Yrotation
    JOINT LeftLeg
    {
      OFFSET 2.56703 -44.7417 -7.93097
      CHANNELS 3 Zrotation Xrotation Yrotation
      JOINT LeftFoot
      {
        OFFSET 3.16933 -46.5642 -3.96578
        CHANNELS 3 Zrotation Xrotation Yrotation
        JOINT LeftToeBase
        {
          OFFSET 0.346054 -6.02161 12.8035
          CHANNELS 3 Zrotation Xrotation Yrotation
          End Site
          {
            OFFSET 0.134235 -1.35082 5.13018
          }
        }
      }
    }
  }
  JOINT RightUpLeg
  {
    OFFSET -5.7928 -1.72406 10.6446
    CHANNELS 3 Zrotation Xrotation Yrotation
    JOINT RightLeg
    {
      OFFSET -2.57161 -44.7178 -7.85259
      CHANNELS 3 Zrotation Xrotation Yrotation
      JOINT RightFoot
      {
        OFFSET -3.10148 -46.5936 -4.03391
        CHANNELS 3 Zrotation Xrotation Yrotation
        JOINT RightToeBase
        {
          OFFSET -0.0828122 -6.13587 12.8035
          CHANNELS 3 Zrotation Xrotation Yrotation
          End Site
          {
            OFFSET -0.131328 -1.35082 5.13018
          }
        }
      }
    }
  }
}
MOTION
Frames: 21
Frame Time: 0.03333333333333333
0.0000 93.1000 0.0000 64.1230 -59.0393 -23.0405 -70.9902 0.0840 88.0154 67.2716 66.1867 11.7975 8.5655 14.1193 6.2696 -120.3086 26.2543 162.6605 -163.6572 68.7098 -171.5817 -1.5095 -18.9382 -28.0246 -85.1063 37.2887 -133.7127 22.1602 -1.2979 -90.9810 -0.1145 0.0564 -0.1911 -2.1263 5.7494 42.1800 -103.1052 -15.6075 95.8128 13.0788 0.7819 97.2065 -0.0506 0.0561 -0.1644 -58.9901 10.1585 104.6610 -3.2385 45.4319 -4.7072 -0.2577 -20.2825 -2.0797 5.5714 -14.4769 10.1025 -36.7915 -7.9996 94.5101 1.8029 38.0129 10.1061 1.1314 3.1042 -0.9252 0.1256 -13.4459 -0.6981 
0.0000 93.1000 0.0000 66.1663 -54.1929 -21.2171 -70.9891 -0.2180 88.0168 67.9007 66.8211 13.2558 8.3064 14.7701 6.2109 -120.1652 26.2690 161.7386 -162.6931 68.8691 -172.8011 -0.7263 -18.6105 -26.9260 -83.2330 36.3442 -134.7908 21.9265 -1.4939 -91.9323 0.3188 -0.1879 -0.1956 -1.6886 5.8204 40.9847 -109.2309 -13.8603 95.1098 13.5532 0.9459 96.7232 0.1833 0.3199 0.2640 -59.1982 9.1554 102.0540 -3.3222 42.3069 -6.8636 -0.1881 -18.5314 -2.2333 5.2015 -14.1553 10.3661 -38.6652 -10.7917 91.3982 1.8585 37.0175 8.9738 1.7948 3.2150 -0.7877 0.7934 -13.8291 -0.1519 
0.0000 93.1000 0.0000 68.0033 -49.8075 -19.3837 -70.9879 -0.2116 88.0146 66.9114 67.3562 14.8900 7.7151 15.7248 6.3762 -120.1152 26.5130 162.0342 -165.1440 69.6260 -169.5176 -0.8131 -18.1666 -25.9567 -82.1267 35.3146 -134.6744 21.1045 -2.2204 -93.1405 0.4290 -0.0935 -0.1933 -1.7515 5.7047 39.1964 -114.6226 -12.9059 96.1091 13.7086 1.1534 95.1656 0.2779 0.1221 0.1947 -58.7649 9.2139 100.3724 -3.5210 40.2992 -6.6199 -0.6960 -17.2339 -1.9514 4.1814 -12.2281 6.5460 -39.9837 -13.0307 87.8836 1.7922 35.1496 7.7961 1.4258 2.5230 -0.6068 1.2282 -15.0672 0.5537 
0.0000 93.1000 0.0000 69.2391 -46.0762 -16.9386 -70.9914 0.1534 88.0115 66.8228 68.0144 15.8197 7.2562 16.6684 6.0004 -121.2203 27.0004 162.4500 -166.0716 70.0876 -168.5070 -0.9138 -18.0360 -25.7039 -81.0517 35.1921 -135.6937 20.8055 -2.1814 -93.0837 0.3832 0.2792 -0.3230 -1.6985 5.6950 37.1726 -119.0616 -12.2581 97.3624 16.1169 0.7144 93.9774 -0.0122 -0.2599 -0.0574 -57.8137 9.1154 99.0115 -3.6785 39.4053 -8.5079 -1.2073 -14.9882 -1.7090 4.6215 -12.8864 7.8233 -41.9145 -13.9553 85.9648 1.2099 34.8588 6.7966 -0.0590 1.6459 -0.2852 1.2638 -12.9987 0.8685 
0.0000 93.1000 0.0000 70.0332 -42.8734 -15.0730 -70.9955 -0.5748 88.0112 67.8099 68.1096 16.2577 6.6661 17.0523 5.5142 -121.3923 27.0639 162.4745 -164.9640 70.3501 -170.0480 -0.5897 -17.7160 -25.2332 -80.3595 35.0139 -135.8315 22.0618 -2.1315 -94.1280 0.4232 -0.3873 -0.1180 -1.6781 5.5205 35.7117 -123.2046 -11.5573 98.1090 18.5456 0.1463 92.1014 0.5191 0.4000 0.4817 -56.5672 9.9508 98.6746 -3.4982 38.2686 -10.7614 -1.2004 -12.7723 -1.3798 5.0109 -14.0595 7.7242 -43.0612 -15.3399 82.6590 0.7950 34.4972 5.7421 -0.5756 1.1446 -0.6798 1.7989 -12.8459 1.1576 
0.0000 93.1000 0.0000 70.9907 -39.2920 -12.9928 -70.9963 -0.5323 88.0110 69.0731 67.9941 15.4418 6.8088 17.0608 5.0285 -120.2633 26.8005 161.5326 -166.2508 70.2271 -168.7728 -0.9440 -18.1865 -25.2568 -79.9717 36.2152 -135.6576 22.2229 -1.9113 -94.3704 0.1585 -0.2789 -0.1188 -1.9527 5.6844 34.8137 -126.7085 -11.1203 98.1159 19.9334 -0.2754 91.2787 0.3186 0.2662 0.2877 -55.1912 11.5411 97.9596 -4.1346 38.1766 -11.3672 -1.8822 -11.8570 -1.0511 4.9224 -13.3470 7.4847 -45.0238 -15.3888 80.3531 1.0283 34.1201 5.9714 -0.2752 0.6146 -0.5154 1.1678 -13.3068 0.2244 
0.0000 93.1000 0.0000 70.9169 -36.3293 -11.9509 -70.9963 -0.1731 88.0109 70.7653 67.9126 14.7860 7.0780 17.0971 5.2905 -120.3410 26.4559 160.6435 -167.2242 70.2684 -167.7584 -1.4936 -18.2233 -24.7264 -78.1435 37.9315 -136.6055 23.2448 -2.5318 -94.1865 -0.1221 0.1231 -0.2717 -2.2698 6.0485 34.2861 -129.8183 -10.1588 98.9753 21.8536 -0.6437 89.3189 0.0599 -0.1273 -0.1578 -53.5894 13.1380 97.9866 -4.1031 39.1780 -13.6770 -2.6698 -10.8198 -0.7984 4.8907 -13.4535 7.8507 -45.8395 -16.4402 77.8517 1.0746 34.2589 4.8929 0.5333 0.8165 -0.4418 0.5236 -14.0084 0.7085 
0.0000 93.1000 0.0000 71.7195 -34.1364 -10.2024 -70.9940 -0.1451 88.0114 70.7326 67.8432 14.5199 7.5480 17.2261 4.8443 -119.3213 26.7481 159.3288 -167.6579 70.8778 -166.6954 -0.6187 -18.5800 -25.0068 -77.4829 38.1069 -138.7228 22.6769 -2.1259 -93.9978 0.1022 -0.0165 -0.3185 -1.8853 6.2744 34.4557 -132.6002 -8.9385 100.2448 23.4759 -0.9008 87.9520 -0.0274 0.0250 0.2480 -52.0244 13.8499 98.1076 -4.1971 40.1096 -13.6172 -2.2658 -11.3329 -1.4432 4.2789 -11.4288 6.5086 -47.1220 -15.8397 75.9696 2.1447 33.7421 3.9013 0.6290 1.2301 -0.2351 0.9772 -14.3436 0.6823 
0.0000 93.1000 0.0000 71.9844 -32.1909 -8.8927 -70.9969 0.0136 88.0110 71.8080 67.9822 14.1450 7.1821 17.1635 5.0802 -118.2855 26.3274 158.1371 -168.1505 70.8017 -165.2401 -1.4419 -18.8708 -25.0583 -76.0293 38.1538 -139.6385 22.0631 -2.2628 -94.1031 -0.1947 0.2009 -0.2655 -2.4085 6.3588 33.8422 -134.6877 -8.7001 101.1298 24.2623 -1.7627 85.9933 -0.0211 -0.2131 -0.1099 -51.0326 14.0130 97.0386 -4.0763 40.3097 -13.8819 -2.2552 -11.4250 -1.0375 3.8140 -10.9965 7.3266 -47.0074 -15.5102 74.7195 2.2832 34.0439 3.7380 0.1395 0.0510 -0.4616 0.7130 -14.5503 -0.1763 
0.0000 93.1000 0.0000 72.9460 -30.8571 -8.0676 -70.9952 0.0351 88.0116 72.6990 68.0999 14.4038 7.1336 16.8199 6.3497 -117.2588 26.1077 157.3927 -167.6905 71.0003 -165.6144 0.0364 -18.7490 -25.0232 -74.3639 39.2550 -141.6851 22.4406 -1.9698 -94.0720 0.3938 -0.0460 -0.2886 -1.6514 6.3572 34.0186 -137.1364 -8.8486 101.2251 24.7235 -2.4069 85.1607 -0.0775 0.0742 0.4968 -49.9219 13.9337 95.0898 -4.3862 40.2672 -13.2106 -2.4032 -12.3304 -1.8801 3.4198 -10.0079 8.6667 -47.5596 -16.2079 73.9831 1.9158 34.0448 3.8853 -0.3788 -0.2968 -0.0384 1.5842 -13.9154 -4.7765 
0.0000 93.1000 0.0000 72.0332 -30.2212 -7.7995 -70.9971 0.1837 88.0119 71.6550 68.1333 14.7086 6.9153 16.9673 6.5062 -116.1769 25.9762 156.1672 -169.5904 71.0098 -162.2319 -0.3747 -19.1411 -25.4121 -73.0656 39.3012 -141.5546 23.1301 -1.8646 -93.0280 0.3860 0.0980 -0.1634 -1.8793 6.1500 33.9893 -138.7527 -9.0843 101.0439 25.4612 -3.0653 84.7568 -0.0446 0.0174 0.3145 -50.0502 13.1983 93.2315 -4.1129 39.3373 -13.2576 -3.4806 -13.7004 -1.6836 2.5747 -8.5981 10.7281 -48.2853 -16.2118 73.8421 2.0720 33.2672 2.9584 -1.6263 -1.3036 -0.1209 0.9855 -14.3041 -6.3302 
0.0000 93.1000 0.0000 72.8853 -29.9842 -6.7917 -70.9966 0.7962 88.0129 71.6972 68.0985 13.4836 6.9225 17.0214 6.5440 -116.2121 26.2654 155.6418 -170.7669 71.6666 -160.1364 -0.5232 -19.1319 -25.7673 -72.0871 39.0995 -142.6555 24.0520 -1.7767 -93.3106 0.2406 0.5965 -0.2600 -1.8239 5.9069 34.2690 -139.7985 -10.4535 100.8905 26.1329 -2.8635 83.9746 -0.3071 -0.4483 -0.1566 -49.1138 13.1132 92.6767 -3.9312 40.8987 -12.6409 -3.3965 -14.3355 -1.9123 1.9798 -8.6281 10.8007 -47.7859 -15.8524 74.0297 2.3342 34.0305 3.1674 -2.7363 -2.4645 0.0869 1.2185 -14.8166 -8.8855 
0.0000 93.1000 0.0000 72.8127 -30.2376 -6.9957 -71.0001 0.3056 88.0137 73.7481 68.6496 10.6947 6.6955 17.0243 6.5801 -115.2366 26.0254 153.4402 -169.4163 71.8868 -162.2584 -0.4403 -19.4052 -25.9804 -72.1444 38.9429 -143.6514 24.3869 -1.5824 -92.2562 0.2457 0.0902 -0.0205 -1.9354 5.6647 34.8611 -140.6241 -11.0579 100.8983 26.0588 -2.6609 84.1130 -0.1059 -0.0307 0.0342 -47.6701 13.5524 92.2082 -3.9203 43.1221 -13.5828 -2.7487 -14.7001 -1.9590 1.5449 -8.0565 12.1716 -46.8121 -15.4601 74.0893 1.8810 35.2064 2.3706 -4.9043 -4.2820 0.0750 2.0164 -14.1657 -8.8277 
0.0000 93.1000 0.0000 73.1257 -30.2801 -7.0050 -71.0045 -0.1149 88.0141 74.6580 68.9396 9.1049 6.4377 17.1218 7.1817 -115.2017 25.9205 153.7151 -171.7454 71.9850 -159.2662 -0.8574 -19.4705 -25.7497 -71.1846 39.2746 -143.7213 26.4204 -1.3231 -92.2558 0.1642 -0.1647 0.0853 -2.1430 5.7788 35.0912 -140.8727 -11.4342 100.2778 25.9346 -2.7440 84.0004 -0.0421 0.1815 -0.1425 -46.9133 13.5325 92.4747 -4.0639 44.3185 -13.1857 -2.7564 -15.2299 -1.7376 0.5604 -6.8110 13.2465 -45.9082 -14.5465 75.1084 1.1484 35.8681 2.3922 -5.1738 -4.4223 -0.0879 1.7703 -12.6831 -9.6333 
0.0000 93.1000 0.0000 72.9776 -30.4532 -6.9203 -71.0043 -0.0353 88.0124 75.6209 68.9947 7.8450 6.3616 17.0087 7.0183 -116.0909 25.9019 154.2534 -172.5353 72.0553 -159.4065 -0.8478 -19.1826 -26.0934 -70.4212 39.2373 -143.7592 27.0865 -1.1035 -92.3042 0.1147 -0.0644 0.0448 -1.9970 5.8422 35.0326 -140.0471 -11.4542 99.7452 25.6086 -2.9706 84.0123 -0.0135 0.0717 -0.2929 -46.2887 14.0333 92.3448 -4.1353 45.3465 -13.0178 -2.6365 -15.7530 -1.9523 0.5012 -6.6718 13.4342 -45.1310 -14.0372 76.2237 0.9957 36.1225 2.1008 -4.8857 -4.8800 -0.0168 1.8925 -12.0855 -11.5382 
0.0000 93.1000 0.0000 72.9746 -30.1571 -7.1513 -71.0037 0.1212 88.0114 75.6731 68.9323 7.1717 6.0388 16.9493 7.3790 -116.2100 26.0338 154.1887 -170.4354 72.6751 -161.6175 -1.0722 -18.9991 -25.8570 -70.9697 39.1054 -142.8630 26.9094 -0.8281 -92.1241 -0.1622 0.0349 0.0956 -1.9878 6.0053 34.7542 -139.1086 -12.0862 99.1486 25.2609 -3.1249 83.8997 -0.0546 -0.0346 -0.3633 -46.0954 13.9869 91.5041 -3.9369 45.9278 -12.6979 -2.8570 -16.1469 -1.9258 1.0911 -7.0652 13.7941 -44.7321 -14.0993 76.6368 1.0239 36.8495 2.7056 -4.8292 -4.9464 -0.0761 1.8913 -11.7120 -10.7083 
0.0000 93.1000 0.0000 73.1231 -30.9243 -7.0464 -71.0022 0.3482 88.0106 74.6668 69.2878 7.8276 5.9774 16.9555 7.6658 -116.0758 26.6965 155.2362 -173.4802 72.8528 -158.5247 -1.0785 -19.0849 -25.7677 -70.2211 39.1740 -142.6524 26.1292 -1.1908 -92.3037 -0.0343 0.2579 0.0051 -1.9888 6.0161 34.4705 -139.0408 -12.0358 98.2639 24.9494 -3.0666 83.9507 -0.2750 -0.2592 -0.4698 -45.3847 13.9301 90.8098 -4.2236 46.1188 -12.9695 -3.4501 -16.0967 -2.0443 1.4703 -7.3527 14.8143 -44.7744 -14.0691 76.1827 1.8636 36.4215 2.6485 -5.6840 -3.9914 0.0203 1.9425 -11.8148 -12.3352 
0.0000 93.1000 0.0000 73.0750 -31.1728 -7.3689 -71.0037 -0.3506 88.0094 74.5904 69.6823 8.0321 5.6572 17.2404 6.8944 -116.1701 26.8583 153.9834 -172.4843 73.0766 -159.3997 -1.2040 -18.9797 -25.8078 -69.9680 38.9461 -142.7879 26.0383 -1.2511 -91.2482 0.0289 -0.3401 0.2478 -2.1230 6.0794 34.4460 -138.9597 -11.7878 98.1743 25.1000 -2.9691 84.0679 -0.0016 0.2574 0.0857 -44.8100 14.0892 92.0678 -4.0597 46.4035 -12.8531 -3.3316 -16.0391 -1.8762 0.8254 -7.2415 14.4028 -44.8047 -13.9338 76.9704 1.7272 36.2076 3.8360 -5.3400 -4.4035 -0.1934 1.9222 -12.1240 -12.4571 
0.0000 93.1000 0.0000 73.0763 -31.9702 -7.3764 -70.9993 0.2654 88.0087 74.7543 69.8435 7.7514 5.8844 17.5400 6.8163 -116.2678 27.0127 154.2108 -172.5531 73.0232 -160.5759 -1.2139 -18.8728 -26.1981 -70.2899 38.4591 -142.8721 26.0393 -1.1058 -91.2225 -0.0722 0.2316 0.0083 -2.0287 6.0162 34.6400 -138.7714 -11.4376 98.0339 24.8772 -2.9010 84.7843 -0.3666 -0.3247 -0.4585 -44.9877 13.8256 92.1298 -3.7268 46.0407 -12.5824 -2.8826 -16.0456 -2.1376 0.3269 -6.3995 13.6502 -44.1077 -13.2451 77.7189 0.7466 36.2513 2.8687 -5.0265 -4.6574 0.1809 1.3636 -10.3629 -12.9975 
0.0000 93.1000 0.0000 72.9440 -32.0375 -7.4186 -70.9997 0.0606 88.0101 75.7191 69.8354 6.4526 5.7026 17.7627 6.9368 -116.0577 27.3013 154.0094 -173.4371 72.9972 -159.3279 -1.1871 -19.0368 -26.2232 -70.2790 37.9044 -142.7764 26.8606 -1.0847 -91.0932 -0.2962 0.0632 0.1723 -1.9413 6.0782 34.9173 -138.9031 -11.3855 96.9844 24.3201 -2.6076 84.8832 -0.1619 -0.1420 -0.3204 -45.1782 14.1103 92.2836 -4.3737 46.2247 -12.9789 -2.5809 -16.0731 -2.1471 -0.1791 -5.9280 15.4165 -44.1778 -13.2595 78.0639 0.8052 36.8556 2.8735 -5.3394 -4.7664 0.0997 1.9763 -9.9565 -15.1403 
0.0000 93.1000 0.0000 73.0223 -32.3353 -7.1544 -71.0047 -0.8323 88.0130 75.5423 70.2763 6.2007 5.2293 17.9950 7.1929 -116.2355 27.1224 154.4195 -173.2102 72.9415 -159.1071 -1.3869 -18.9674 -26.4682 -70.9754 38.0679 -141.7607 26.7280 -1.0074 -91.4361 -0.3650 -0.6816 0.4832 -2.1406 6.0727 34.6705 -138.8418 -11.7081 97.0620 24.0688 -1.9034 85.0075 0.3483 0.5816 0.2238 -45.1756 14.1833 91.9822 -4.1427 46.3214 -12.2305 -2.7600 -16.0173 -1.6854 -0.5626 -5.9224 16.0550 -43.6576 -13.0048 79.0480 0.5631 36.0897 2.7095 -5.9866 -4.3347 -0.2553 2.3311 -9.7886 -12.2714 
